<svg width="682" height="598" viewBox="0 0 682 598" fill="none" xmlns="http://www.w3.org/2000/svg">
<path fill-rule="evenodd" clip-rule="evenodd" d="M402.263 435.126C398.047 433.889 389.364 426.02 386.136 420.512C382.556 414.404 376.338 409.936 371.416 409.936C368.878 409.936 365.968 408.86 362.535 406.653C357.898 403.671 357.423 403.016 357.37 399.516C357.338 397.396 357.851 394.668 358.51 393.455C359.17 392.241 360.04 388.86 360.444 385.941C360.921 382.493 362.094 379.547 363.791 377.53C366.828 373.921 366.97 372.386 364.826 366.374C362.408 359.594 363.567 354.361 368.336 350.528C372.701 347.02 373.428 344.725 372.49 337.412C371.839 332.34 371.857 332.3 375.57 330.213C380.089 327.673 381.46 327.598 383.07 329.8C384.174 331.309 385.09 331.359 391.768 330.276C398.419 329.198 399.629 328.641 402.877 325.166C407.256 320.48 411.85 319.132 415.436 321.482C416.802 322.377 417.92 323.5 417.92 323.977C417.92 324.453 419.552 326.088 421.547 327.609C424.558 329.906 425.567 330.196 427.492 329.319C429.649 328.336 429.858 327.459 430.473 316.824C431.498 299.105 431.789 297.809 434.743 297.809C439.768 297.809 441.355 296.068 441.033 290.909C440.871 288.315 441.064 285.253 441.461 284.105C441.889 282.866 441.38 279.683 440.207 276.276C439.121 273.119 438.656 270.535 439.174 270.535C439.691 270.535 441.322 268.711 442.797 266.482C445.205 262.844 445.415 261.809 444.848 256.386C444.501 253.063 443.473 248.637 442.564 246.55C441.522 244.158 440.939 240.163 440.985 235.737C441.063 228.217 439.215 222.703 436.049 221.009C435.053 220.476 432.832 217.582 431.114 214.58C429.396 211.577 427.405 208.895 426.69 208.621C425.975 208.346 423.184 204.326 420.489 199.687L415.588 191.252L417.366 186.699C420.063 179.792 419.947 177.168 416.923 176.742C412.339 176.095 409.364 172.856 404.273 162.966C396.744 148.342 396.807 148.441 393.614 146.08C388.478 142.283 390.113 140.225 398.264 140.225C401.786 140.225 403.208 139.662 405.253 137.458C406.664 135.936 407.819 134.16 407.819 133.512C407.819 132.85 408.663 132.554 409.746 132.837C412.768 133.628 415.9 129.774 415.9 125.266C415.9 123.15 416.559 120.536 417.366 119.458C418.343 118.15 418.636 116.234 418.247 113.709C417.689 110.096 418.947 108.507 420.446 110.931C420.789 111.487 422.18 111.941 423.536 111.941C425.328 111.941 426.002 111.389 426.002 109.921C426.002 108.81 426.615 107.901 427.365 107.901C429.832 107.901 437.339 101.706 438.455 98.7495C439.064 97.1365 440.808 95.3301 442.389 94.6753C447.104 92.7224 452.983 84.4092 453.787 78.5571C454.451 73.7328 454.723 73.3678 459.436 70.9796C464.379 68.4746 464.387 68.4622 464.387 63.3704C464.387 60.5653 464.879 57.3511 465.48 56.2277C466.082 55.1043 466.783 52.975 467.039 51.4959C467.685 47.7651 470.032 46.1731 473.144 47.3561C476.999 48.8218 487.77 48.4747 491.019 46.78C495.354 44.5194 502.773 44.9713 502.773 47.496C502.773 48.0453 501.824 49.828 500.663 51.4576C495.995 58.0138 496.101 64.4639 500.876 64.4639C503.133 64.4639 503.212 65.2075 501.414 69.484C500.667 71.2615 500.261 73.79 500.512 75.103C500.891 77.0893 501.671 77.5416 505.154 77.7956C509.257 78.095 509.405 78.2389 512.739 85.1721C520.208 100.703 520.956 102.445 520.956 104.3C520.956 105.359 521.712 107.062 522.636 108.083C523.663 109.218 524.258 111.436 524.166 113.786C523.862 121.551 529.595 128.104 536.694 128.104C539.223 128.104 541.159 130.687 541.159 134.063C541.159 136.391 543.003 137.558 551.062 140.331C554.178 141.403 558.792 143.984 561.317 146.068C563.842 148.151 567.606 151.116 569.682 152.658C574.767 156.432 575.278 157.643 576.648 169.163L577.833 179.116L585.12 189.218C589.128 194.774 595.222 203.353 598.663 208.282L604.918 217.245L602.778 219.522C600.959 221.459 600.713 222.67 601.136 227.601C601.435 231.087 601.171 234.144 600.474 235.259C599.529 236.772 599.728 237.554 601.552 239.495C604.003 242.104 604.53 247.166 602.558 249.138C601.761 249.935 601.429 252.88 601.617 257.486C601.802 262.007 601.458 265.146 600.675 266.089C599.677 267.292 599.85 267.955 601.581 269.567C603.783 271.619 603.678 273.254 601.095 277.073C600.354 278.169 599.748 280.031 599.748 281.211C599.748 284.166 596.846 289.728 595.304 289.728C594.608 289.728 592.983 290.853 591.691 292.227C589.487 294.573 589.457 294.77 591.202 295.439C592.31 295.864 593.221 295.671 593.458 294.96C594.295 292.45 595.808 294.02 599.37 301.092C605.128 312.526 615.466 327.104 617.816 327.104C618.978 327.104 622.412 335.043 622.239 337.332C622.16 338.384 621.226 340.49 620.163 342.013C619.1 343.535 617.94 346.295 617.584 348.146C617.229 349.997 616.025 352.672 614.909 354.091C613.793 355.51 612.88 357.233 612.88 357.921C612.88 358.609 611.895 361.389 610.691 364.098C608.938 368.046 608.508 370.931 608.528 378.621C608.569 394.505 609.04 401.86 610.055 402.487C610.584 402.814 609.505 404.55 607.655 406.345C605.806 408.14 603.384 411.134 602.273 412.999C601.005 415.127 599.104 416.684 597.167 417.181C595.469 417.617 593.004 419.119 591.687 420.521C589.267 423.097 585.237 423.913 584.09 422.058C583.747 421.502 582.632 421.048 581.611 421.048C580.591 421.048 578.686 419.885 577.378 418.463C576.069 417.042 573.991 415.468 572.759 414.966C569.636 413.692 564.079 416.19 562.544 419.558C560.811 423.362 555.041 430.099 553.498 430.121C552.784 430.131 551.193 429.508 549.962 428.737C545.299 425.815 540.467 425.799 535.16 428.687L530.219 431.377L523.564 428.233C519.904 426.503 516.028 425.088 514.95 425.088C513.871 425.088 512.395 424.245 511.669 423.213C510.943 422.182 508.394 420.343 506.004 419.126C501.769 416.969 495.702 409.306 495.702 406.114C495.702 405.028 494.762 404.867 491.573 405.405C487.938 406.019 487.093 405.767 484.52 403.303C481.966 400.856 481.281 400.648 479.081 401.65C477.697 402.28 475.906 404.373 475.101 406.299C474.25 408.336 472.296 410.496 470.43 411.46C467.505 412.973 464.949 413.606 452.771 415.835C447.241 416.846 440.858 415.545 436.362 412.49C434.295 411.085 432.287 409.936 431.9 409.936C430.07 409.936 428.022 413.459 428.022 416.606C428.022 418.808 427.451 420.32 426.48 420.693C425.632 421.018 423.809 423.21 422.43 425.563C419.114 431.223 417.261 432.754 412.049 434.142C409.653 434.78 407.153 435.462 406.493 435.659C405.833 435.855 403.93 435.615 402.263 435.126Z" fill="#87DECD"/>
<path fill-rule="evenodd" clip-rule="evenodd" d="M356.745 280.882C355.009 279.281 351.914 277.335 349.867 276.558C347.821 275.78 344.424 273.911 342.319 272.403C337.569 269.002 334.643 268.381 330.537 269.902C325.558 271.747 324.478 271.851 322.662 270.661C321.719 270.043 319.205 269.287 317.076 268.98C313.432 268.456 313.177 268.286 312.725 266.078C312.14 263.219 310.333 261.12 307.399 259.895C305.626 259.154 304.879 258.115 303.604 254.619C302.47 251.508 301.421 249.914 299.93 249.033C298.722 248.32 297.659 246.957 297.404 245.797C296.854 243.291 294.579 241.649 291.659 241.649C290.215 241.649 288.428 240.854 286.64 239.415C280.783 234.703 275.163 233.859 271.646 237.165C269.243 239.423 268.164 239.362 265.479 236.821C263.055 234.527 262.356 231.111 263.486 227.076C264.457 223.608 264.482 222.683 264.01 207.814C263.638 196.08 263.458 195.648 259.22 196.31C255.888 196.83 247.145 193.826 243.681 190.971C240.786 188.584 239.871 188.373 237.865 189.626C236.308 190.599 236.062 190.438 226.981 182.492C223.695 179.616 219.764 176.183 218.247 174.863L215.488 172.463L217.89 169.066C220.096 165.946 227.926 157.797 232.371 153.996C233.388 153.126 234.227 151.68 234.237 150.782C234.249 149.51 235.372 148.517 239.316 146.292C245.217 142.961 248.624 142.382 263.961 142.103C275.581 141.891 275.041 142.109 282.551 134.599L287.644 129.506H292.93C298.154 129.506 298.249 129.54 301 132.357C305.64 137.11 310.743 136.961 311.665 132.047C311.923 130.672 312.88 128.655 313.792 127.563C314.704 126.471 316.092 124.317 316.877 122.777L318.305 119.976L322.709 126.527C325.667 130.926 327.558 133.078 328.466 133.078C331.337 133.078 332.077 133.864 332.068 136.904C332.059 139.755 333.547 147.784 335.082 153.172C335.489 154.599 337.317 158.457 339.144 161.744C343.667 169.881 343.799 169.885 357.527 162.244C363.369 158.993 369.47 155.119 371.086 153.634C372.701 152.149 374.248 150.935 374.525 150.935C374.801 150.935 375.838 151.899 376.83 153.078C379.068 155.738 381.517 155.846 383.97 153.392C385.392 151.97 385.694 151.136 385.327 149.642C384.355 145.679 384.515 145.029 386.64 144.308C388.274 143.753 388.832 143.837 389.323 144.715C389.664 145.325 391.103 146.541 392.521 147.417C394.019 148.343 395.541 150.085 396.156 151.579C396.738 152.993 397.815 154.801 398.55 155.598C399.285 156.395 400.372 158.425 400.967 160.109C401.561 161.794 402.653 164.035 403.393 165.089C404.134 166.143 405.398 168.511 406.203 170.35C407.866 174.146 412.278 177.782 416.09 178.498C417.419 178.747 418.506 179.086 418.506 179.252C418.506 179.418 417.71 181.124 416.738 183.042C413.436 189.557 413.559 191.272 417.892 199.227C419.997 203.092 423.041 207.549 424.655 209.131C426.269 210.712 428.286 213.375 429.137 215.047C429.987 216.72 432.151 219.613 433.944 221.476C438.746 226.464 439.11 227.484 438.988 235.6C438.918 240.214 439.199 243.283 439.785 244.319C441.087 246.62 443.482 256.539 443.495 259.683C443.503 261.628 442.804 263.337 440.939 265.933C439.527 267.898 438.05 269.506 437.656 269.506C436.68 269.506 429.281 267.437 427.077 266.549C426.095 266.152 423.927 264.105 422.259 261.999C419.893 259.01 417.954 257.533 413.427 255.267C406.104 251.601 403.684 251.515 400.786 254.816C399.601 256.166 398.421 257.933 398.163 258.745C397.906 259.556 397.154 260.222 396.493 260.224C393.237 260.235 389.889 261.808 388.852 263.813C388.255 264.967 386.813 266.404 385.646 267.007C384.479 267.611 382.403 269.09 381.031 270.294C379.019 272.06 378.134 272.395 376.453 272.026C375.306 271.774 373.803 270.943 373.112 270.18C372.377 269.368 370.927 268.792 369.617 268.792C367.659 268.792 367.101 269.274 365.17 272.636C363.956 274.75 362.416 278.125 361.748 280.136C361.08 282.147 360.392 283.792 360.218 283.792C360.044 283.792 358.482 282.482 356.745 280.882Z" fill="#B3FF80"/>
<path fill-rule="evenodd" clip-rule="evenodd" d="M367.671 330.175C365.173 328.639 364.101 327.009 364.075 324.708C364.06 323.363 364.309 323.028 365.677 322.551C368.28 321.644 369.613 320.077 369.613 317.924C369.613 316.427 369.123 315.437 367.235 313.119C365.254 310.688 364.88 309.899 364.995 308.401C365.245 305.14 366.04 303.039 367.585 301.559C368.422 300.756 369.108 299.83 369.108 299.501C369.108 298.94 366.025 292.337 363.315 287.093L362.108 284.757L363.278 280.964C364.497 277.013 368.323 269.984 369.255 269.984C369.55 269.984 370.972 270.797 372.416 271.791C373.864 272.789 375.917 273.713 376.998 273.855C378.774 274.088 379.263 273.866 382.231 271.476C384.031 270.026 386.126 268.623 386.886 268.358C387.714 268.069 388.88 266.882 389.795 265.395C390.635 264.03 391.495 262.888 391.705 262.858C391.916 262.828 393.566 262.544 395.372 262.227C398.534 261.671 398.692 261.572 399.672 259.533C401.234 256.284 403.634 253.822 405.241 253.822C406.808 253.822 411.46 255.79 415.697 258.245C417.666 259.387 419.522 261.094 421.478 263.566C424.856 267.833 424.829 267.81 427.444 268.485C428.555 268.771 431.022 269.489 432.926 270.08C436.193 271.094 436.441 271.279 437.339 273.374C437.863 274.595 438.772 277.177 439.359 279.112C440.378 282.464 440.387 282.691 439.56 283.953C438.689 285.282 438.691 285.467 439.627 291.327C439.838 292.65 439.68 293.606 439.105 294.484C438.382 295.587 437.917 295.743 435.34 295.743C430.577 295.743 429.828 297.364 429.162 309.127C428.383 322.89 427.922 327.11 427.145 327.602C425.606 328.577 424.435 327.898 420.144 323.546C417.53 320.894 415.096 318.875 414.26 318.666C411.289 317.92 403.313 320.568 402.698 322.504C402.216 324.024 400.443 326.011 398.821 326.85C397.989 327.28 395.452 327.971 393.183 328.385C385.352 329.814 385.445 329.814 384.549 328.447C383.685 327.128 381.759 326.047 380.271 326.047C379.234 326.047 375.449 327.976 372.239 330.139C371.045 330.945 370.022 331.585 369.967 331.564C369.911 331.542 368.878 330.917 367.671 330.175Z" fill="#BDDBFC"/>
<path fill-rule="evenodd" clip-rule="evenodd" d="M188.761 545.799C187.46 543.571 187.051 541.966 187.218 539.736C187.404 537.262 187.039 536.151 185.239 533.703C182.5 529.979 182.493 529.281 185.175 527.299C187.764 525.384 188.012 522.489 185.886 519.002C185.102 517.715 184.46 515.963 184.46 515.107C184.46 514.251 183.456 512.515 182.228 511.248C180.279 509.238 180.057 508.618 180.478 506.373C180.744 504.958 181.239 503.972 181.579 504.183C182.787 504.929 185.925 503.123 186.627 501.277C187.194 499.787 187.044 498.924 185.9 497.073C184.021 494.033 184.081 493.243 186.368 490.856C188.164 488.981 188.206 488.788 187.082 487.546C186.358 486.746 185.889 485.024 185.889 483.164C185.889 480.778 185.415 479.56 183.746 477.66C181.817 475.462 181.603 474.737 181.603 470.387C181.603 465.002 180.927 463.84 177.792 463.84C175.735 463.84 175.703 463.782 176.112 460.798C176.407 458.641 176.142 456.893 175.198 454.785C173.739 451.525 172.021 450.269 169.022 450.269C167.694 450.269 166.323 449.463 164.772 447.769C163.298 446.16 161.831 445.269 160.654 445.269C158.278 445.269 156.603 442.84 156.603 439.396V436.697H160.149C163.9 436.697 165.175 435.629 165.175 432.484C165.175 431.686 165.817 430.689 166.603 430.269C167.389 429.848 168.032 428.926 168.032 428.22C168.032 426.219 168.861 425.866 170.363 427.225C171.678 428.415 171.797 428.4 173.034 426.872C174.789 424.705 174.078 422.547 171.147 421.149C168.292 419.788 168.246 419.559 170.427 417.51C171.963 416.067 172.406 415.997 175.541 416.7C177.634 417.169 179.231 417.212 179.632 416.811C180.361 416.083 178.348 411.702 175.118 406.986C172.429 403.059 171.966 400.877 173.284 398.329C175.073 394.87 176.415 394.197 181.537 394.197H186.246L186.603 391.364C186.956 388.562 188.044 387.52 191.782 386.402C192.509 386.184 193.032 385.33 193.032 384.359C193.032 382.47 197.318 377.412 198.919 377.412C199.581 377.412 200.208 378.539 200.61 380.447C201.115 382.851 201.594 383.532 202.912 383.719C203.912 383.861 205.168 384.959 206.061 386.472C207.45 388.825 207.715 388.956 210.111 388.472C211.521 388.188 213.942 387.887 215.49 387.803C217.904 387.674 218.773 387.123 221.571 383.95C223.767 381.458 225.708 380.006 227.506 379.51C228.975 379.104 230.966 377.984 231.929 377.021C232.893 376.057 234.111 375.269 234.636 375.269C235.162 375.269 237.024 373.807 238.776 372.02C240.746 370.01 242.416 368.89 243.157 369.082C243.815 369.253 246.314 368.459 248.71 367.318C252.023 365.74 253.353 364.644 254.258 362.745C255.4 360.351 255.384 360.115 253.883 357.025C253.022 355.252 252.331 353.248 252.348 352.571C252.364 351.894 253.813 349.09 255.567 346.34C259.213 340.625 258.794 341.557 260.895 334.475C262.22 330.005 262.444 327.909 262.154 322.689C261.902 318.137 262.093 315.597 262.831 313.714C263.773 311.309 263.735 310.807 262.38 307.744C261.566 305.904 261.095 304.084 261.334 303.698C261.597 303.272 263.669 303.188 266.627 303.485C272.141 304.039 274.147 303.617 275.182 301.684C275.776 300.573 275.403 299.877 273.038 297.689C269.738 294.635 269.393 292.459 271.541 288.248C272.751 285.876 272.901 284.019 272.855 272.026C272.826 264.578 273.039 257.444 273.328 256.174C273.66 254.716 273.451 252.476 272.762 250.102C270.598 242.65 271.117 238.797 274.472 237.407C277.576 236.121 281.042 237.077 284.933 240.292C287.27 242.223 289.055 243.126 290.538 243.126C293.362 243.126 295.889 244.928 295.889 246.941C295.889 247.959 296.677 248.998 298.075 249.823C300.149 251.049 301.036 252.5 303.091 258.023C303.752 259.801 304.772 260.76 307.04 261.731C309.678 262.863 310.207 263.463 310.901 266.12C311.895 269.921 313.194 270.976 316.918 271.008C318.513 271.022 320.621 271.493 321.603 272.055C322.585 272.616 324.353 273.075 325.532 273.075C326.71 273.075 328.478 272.616 329.46 272.055C332.448 270.346 336.645 270.734 340.307 273.056C342.104 274.196 343.778 275.457 344.026 275.859C344.274 276.26 346.161 277.133 348.219 277.798C350.317 278.477 353.215 280.171 354.817 281.655C356.389 283.111 358.585 284.866 359.698 285.555C360.812 286.244 362.199 287.989 362.781 289.432C363.363 290.874 364.702 293.784 365.757 295.899C367.165 298.721 367.433 299.83 366.767 300.07C365.425 300.554 363.996 303.754 363.453 307.489C363.01 310.534 363.163 311.005 365.503 313.806C368.808 317.762 368.744 319.162 365.175 320.983C363.032 322.076 362.317 322.872 362.317 324.165C362.317 327.428 363.737 329.608 367.309 331.828L370.889 334.054V339.944C370.889 346.305 370.74 346.561 364.472 350.983C363.368 351.762 362.727 353.385 362.124 356.927C361.368 361.375 361.433 362.184 362.878 366.213C365.017 372.178 364.891 373.524 361.848 377.238C359.634 379.94 359.16 381.15 358.742 385.169C358.471 387.777 357.572 391.37 356.746 393.152C355.487 395.865 355.254 397.667 355.313 404.235C355.369 410.393 355.117 412.594 354.141 414.482C352.804 417.067 352.917 419.224 354.668 424.555C356.947 431.493 359.125 446.855 358.341 450.464C358.044 451.832 357.05 452.883 355.125 453.866C351.622 455.652 350.502 457.364 349.21 462.902C348.644 465.329 347.665 468.05 347.035 468.95C345.595 471.006 345.56 475.736 346.96 479.087C347.631 480.692 348.032 483.95 348.032 487.793C348.032 491.171 348.349 494.526 348.736 495.25C349.445 496.574 348.422 500.698 346.163 505.626C345.623 506.805 344.751 509.222 344.226 510.998C343.7 512.773 341.77 516.264 339.937 518.755C338.103 521.245 336.603 523.557 336.603 523.891C336.603 525.166 330.704 530.269 329.225 530.273C326.387 530.28 322.387 531.731 320.25 533.529C318.978 534.6 317.959 535.015 317.686 534.573C317.437 534.17 316.591 533.84 315.806 533.84C315.022 533.84 313.464 532.837 312.344 531.611C310.193 529.257 309.411 529.185 303.11 530.761C300.919 531.309 300.594 531.735 299.701 535.224C299.158 537.345 298.07 540.123 297.283 541.396C296.057 543.38 295.319 543.78 292.12 544.19C290.068 544.453 287.33 545.034 286.036 545.481C284.269 546.09 283.379 546.088 282.464 545.469C277.942 542.412 269.977 538.126 268.817 538.126C268.053 538.126 266.374 539.01 265.088 540.09C262.819 541.995 262.488 542.055 254.14 542.055C245.019 542.055 242.967 542.683 238.216 546.932C235.808 549.085 232.794 548.748 229.291 545.933C227.298 544.331 224.575 543.072 221.314 542.244C218.59 541.552 215.829 540.504 215.176 539.913C213.413 538.318 209.522 538.611 205.737 540.626C203.536 541.798 201.206 542.42 198.957 542.434C195.055 542.46 193.75 543.232 192.052 546.519C191.392 547.796 190.78 548.838 190.692 548.835C190.604 548.832 189.735 547.466 188.761 545.799Z" fill="#FF8080"/>
<path fill-rule="evenodd" clip-rule="evenodd" d="M89.9688 519.295C86.6126 515.259 80.1145 511.612 76.9032 511.961C74.1066 512.265 62.6293 506.651 58.1353 502.78C55.1957 500.248 54.8845 499.581 56.0094 498.226C56.9938 497.04 57.1562 494.414 56.6515 487.847C55.6675 475.046 54.7089 472.492 49.4368 468.63C46.9479 466.807 44.9116 464.508 44.9116 463.521C44.9116 462.535 46.9572 460.286 49.4573 458.523C54.8947 454.691 55.2055 452.489 51.3502 445.116C48.0886 438.878 48.4427 434.247 52.7149 427.268C56.6196 420.889 58.9652 419.847 66.6299 421.084C72.2527 421.992 72.8003 421.907 74.206 419.911C75.0394 418.727 77.0129 416.206 78.5915 414.309C80.1701 412.411 82.2156 408.9 83.1372 406.507C84.0587 404.113 85.8388 400.859 87.0931 399.276C89.2997 396.49 89.596 396.416 96.243 396.973C109.469 398.082 111.746 395.889 128.878 365.542C138.796 347.974 138.924 343.559 130.281 317.271C125.996 304.24 122.693 288.71 122.694 281.606C122.695 276.632 127.229 267.504 135.04 256.749C138.659 251.767 142.115 246.734 142.721 245.563C143.96 243.17 149.118 237.002 153.14 233.104C155.183 231.123 155.801 229.549 155.78 226.375C155.761 223.529 156.587 221.002 158.416 218.311C159.881 216.156 161.079 213.854 161.079 213.197C161.079 212.54 164.051 209.392 167.684 206.203C171.827 202.565 175.603 198.053 177.818 194.092C179.76 190.62 182.078 187.174 182.969 186.435C183.86 185.695 185.409 183.178 186.411 180.84C189.03 174.73 192.157 173.445 204.415 173.445C211.42 173.445 214.765 173.834 215.325 174.714C215.769 175.411 217.723 177.186 219.668 178.656C221.613 180.127 225.704 183.663 228.759 186.513C233.406 190.847 234.811 191.626 237.346 191.269C239.45 190.973 241.356 191.578 243.582 193.248C247.215 195.974 256.898 198.812 259.893 198.029C261.766 197.539 261.891 198.085 262.009 207.324C262.078 212.723 262.397 217.564 262.717 218.082C263.037 218.6 262.717 221.953 262.006 225.532C260.865 231.273 260.912 232.457 262.406 235.59C263.337 237.543 265.19 239.638 266.523 240.246C268.432 241.115 269.222 242.667 270.24 247.551C270.952 250.962 271.42 254.2 271.28 254.748C271.141 255.296 270.998 262.327 270.963 270.372C270.92 280.28 270.457 286.059 269.527 288.284C267.546 293.027 267.823 295.433 270.681 298.291C272.07 299.68 273.206 301.035 273.206 301.302C273.206 301.569 270.583 301.684 267.378 301.557C264.173 301.431 260.991 301.673 260.307 302.096C258.844 303 258.667 305.973 259.996 307.341C260.992 308.367 259.811 331.327 258.493 336.542C258.078 338.186 255.966 342.272 253.801 345.623C251.635 348.973 250.076 352.401 250.336 353.241C250.596 354.08 251.389 356.208 252.097 357.969C253.158 360.606 253.142 361.463 252.012 362.826C250.47 364.683 244.535 367.394 242.011 367.394C241.101 367.394 239.796 368.293 239.11 369.391C238.424 370.489 236.042 372.316 233.816 373.452C231.591 374.588 229.77 375.962 229.77 376.506C229.77 377.05 228.766 377.496 227.539 377.496C226.313 377.496 223.585 379.179 221.479 381.236C219.066 383.592 215.937 385.411 213.025 386.15C208.596 387.275 208.364 387.224 207.494 384.935C206.952 383.509 205.762 382.547 204.541 382.547C203.061 382.547 202.495 381.883 202.495 380.145C202.495 378.824 201.77 377.141 200.884 376.406C198.662 374.562 194.626 376.894 192.481 381.261C191.6 383.054 190.381 384.531 189.773 384.544C188.212 384.576 185.603 387.725 185.149 390.123C184.841 391.749 183.966 392.143 180.665 392.143C176.136 392.143 173.801 393.609 171.623 397.821C169.967 401.023 170.645 403.612 174.706 409.588C177.944 414.354 177.893 414.953 174.271 414.677C168.668 414.25 164.78 420.397 169.348 422.461C170.562 423.009 171.755 424.14 171.999 424.973C172.358 426.196 172.185 426.244 171.105 425.226C169.023 423.261 167.237 423.729 166.563 426.415C166.225 427.764 165.307 429.113 164.524 429.414C163.74 429.714 163.099 431.084 163.099 432.456C163.099 434.612 162.582 434.995 159.311 435.266C155.835 435.554 155.497 435.855 155.201 438.934C154.824 442.863 157.297 447.196 159.916 447.196C160.918 447.196 162.805 448.333 164.11 449.722C165.489 451.19 167.609 452.247 169.174 452.247C172.425 452.247 174.211 455.497 174.211 461.411C174.211 465.068 174.484 465.484 177.242 466.036C180.144 466.616 180.272 466.864 180.272 471.915C180.272 475.908 180.763 477.632 182.296 479.02C183.44 480.055 184.26 481.99 184.182 483.469C184.106 484.909 184.352 486.81 184.729 487.693C185.13 488.631 184.766 489.838 183.854 490.595C181.856 492.253 181.87 494.631 183.895 497.523C185.183 499.362 185.253 500.107 184.249 501.316C182.583 503.324 180.963 502.651 180.257 499.658C179.884 498.082 178.622 496.896 176.693 496.31C175.05 495.811 170.608 493.853 166.821 491.959C161.008 489.05 158.965 488.539 153.689 488.674C146.996 488.845 138.269 487.43 134.905 485.63C133.769 485.022 131.714 483.399 130.338 482.023C127.399 479.085 126.639 478.996 122.539 481.116C120.217 482.317 118.795 482.462 116.781 481.705C112.601 480.133 106.515 479.53 104.672 480.506C103.75 480.995 102.214 481.635 101.26 481.929C98.3702 482.819 96.1895 489.371 97.4805 493.282C98.2103 495.493 98.2428 497.213 97.5783 498.455C97.0308 499.478 96.8331 503.074 97.1389 506.446C97.6733 512.34 95.3428 523.076 93.5703 522.885C93.1983 522.845 91.5776 521.229 89.9688 519.295Z" fill="#FFE680"/>
<path d="M316.338 206.455V221H314.321L306.928 210.332H306.793V221H304.598V206.455H306.629L314.03 217.136H314.165V206.455H316.338ZM323.964 221.22C322.941 221.22 322.049 220.986 321.287 220.517C320.524 220.048 319.932 219.393 319.511 218.55C319.09 217.707 318.879 216.722 318.879 215.595C318.879 214.464 319.09 213.474 319.511 212.626C319.932 211.779 320.524 211.121 321.287 210.652C322.049 210.183 322.941 209.949 323.964 209.949C324.987 209.949 325.879 210.183 326.642 210.652C327.404 211.121 327.996 211.779 328.417 212.626C328.839 213.474 329.049 214.464 329.049 215.595C329.049 216.722 328.839 217.707 328.417 218.55C327.996 219.393 327.404 220.048 326.642 220.517C325.879 220.986 324.987 221.22 323.964 221.22ZM323.971 219.438C324.634 219.438 325.183 219.262 325.619 218.912C326.055 218.562 326.377 218.095 326.585 217.513C326.798 216.93 326.904 216.289 326.904 215.588C326.904 214.892 326.798 214.253 326.585 213.67C326.377 213.083 326.055 212.612 325.619 212.257C325.183 211.902 324.634 211.724 323.971 211.724C323.304 211.724 322.75 211.902 322.309 212.257C321.874 212.612 321.549 213.083 321.336 213.67C321.128 214.253 321.024 214.892 321.024 215.588C321.024 216.289 321.128 216.93 321.336 217.513C321.549 218.095 321.874 218.562 322.309 218.912C322.75 219.262 323.304 219.438 323.971 219.438ZM331.42 221V210.091H333.472V211.824H333.586C333.785 211.237 334.135 210.775 334.637 210.439C335.144 210.098 335.717 209.928 336.356 209.928C336.488 209.928 336.645 209.932 336.825 209.942C337.009 209.951 337.154 209.963 337.258 209.977V212.009C337.173 211.985 337.021 211.959 336.803 211.93C336.585 211.897 336.368 211.881 336.15 211.881C335.648 211.881 335.201 211.987 334.808 212.2C334.419 212.409 334.112 212.7 333.884 213.074C333.657 213.443 333.543 213.865 333.543 214.338V221H331.42ZM344.832 210.091V211.795H338.874V210.091H344.832ZM340.472 207.477H342.595V217.797C342.595 218.209 342.657 218.519 342.78 218.727C342.903 218.931 343.062 219.071 343.256 219.146C343.455 219.217 343.67 219.253 343.902 219.253C344.072 219.253 344.222 219.241 344.349 219.217C344.477 219.194 344.577 219.175 344.648 219.161L345.031 220.915C344.908 220.962 344.733 221.009 344.506 221.057C344.278 221.109 343.994 221.137 343.653 221.142C343.095 221.152 342.574 221.052 342.091 220.844C341.608 220.635 341.217 220.313 340.919 219.878C340.621 219.442 340.472 218.895 340.472 218.237V207.477ZM349.539 214.523V221H347.416V206.455H349.511V211.866H349.646C349.902 211.279 350.292 210.813 350.818 210.467C351.343 210.122 352.03 209.949 352.877 209.949C353.626 209.949 354.279 210.103 354.838 210.411C355.401 210.718 355.837 211.178 356.145 211.788C356.457 212.394 356.613 213.152 356.613 214.061V221H354.49V214.317C354.49 213.517 354.284 212.896 353.872 212.456C353.46 212.011 352.887 211.788 352.153 211.788C351.651 211.788 351.201 211.895 350.804 212.108C350.411 212.321 350.1 212.634 349.873 213.045C349.651 213.453 349.539 213.945 349.539 214.523ZM364.149 221.22C363.074 221.22 362.148 220.991 361.372 220.531C360.6 220.067 360.003 219.416 359.582 218.578C359.165 217.735 358.957 216.748 358.957 215.616C358.957 214.499 359.165 213.514 359.582 212.662C360.003 211.81 360.591 211.144 361.343 210.666C362.101 210.188 362.986 209.949 364 209.949C364.615 209.949 365.212 210.051 365.789 210.254C366.367 210.458 366.886 210.777 367.345 211.213C367.804 211.649 368.166 212.214 368.431 212.911C368.697 213.602 368.829 214.442 368.829 215.432V216.185H360.157V214.594H366.748C366.748 214.035 366.635 213.54 366.407 213.109C366.18 212.674 365.86 212.33 365.449 212.08C365.041 211.829 364.563 211.703 364.014 211.703C363.417 211.703 362.896 211.85 362.451 212.143C362.011 212.432 361.67 212.811 361.429 213.28C361.192 213.744 361.074 214.248 361.074 214.793V216.036C361.074 216.765 361.201 217.385 361.457 217.896C361.717 218.408 362.08 218.798 362.544 219.068C363.008 219.333 363.55 219.466 364.17 219.466C364.573 219.466 364.94 219.409 365.271 219.295C365.602 219.177 365.889 219.002 366.13 218.77C366.372 218.538 366.556 218.251 366.684 217.911L368.694 218.273C368.533 218.865 368.244 219.383 367.828 219.828C367.416 220.268 366.897 220.612 366.272 220.858C365.652 221.099 364.944 221.22 364.149 221.22ZM371.185 221V210.091H373.238V211.824H373.352C373.55 211.237 373.901 210.775 374.403 210.439C374.909 210.098 375.482 209.928 376.121 209.928C376.254 209.928 376.41 209.932 376.59 209.942C376.775 209.951 376.919 209.963 377.023 209.977V212.009C376.938 211.985 376.787 211.959 376.569 211.93C376.351 211.897 376.133 211.881 375.915 211.881C375.414 211.881 374.966 211.987 374.573 212.2C374.185 212.409 373.877 212.7 373.65 213.074C373.423 213.443 373.309 213.865 373.309 214.338V221H371.185ZM380.985 214.523V221H378.861V210.091H380.9V211.866H381.034C381.285 211.289 381.678 210.825 382.213 210.474C382.753 210.124 383.433 209.949 384.252 209.949C384.995 209.949 385.646 210.105 386.205 210.418C386.764 210.725 387.197 211.185 387.505 211.795C387.812 212.406 387.966 213.161 387.966 214.061V221H385.843V214.317C385.843 213.526 385.637 212.908 385.225 212.463C384.813 212.013 384.247 211.788 383.527 211.788C383.035 211.788 382.597 211.895 382.213 212.108C381.835 212.321 381.534 212.634 381.311 213.045C381.094 213.453 380.985 213.945 380.985 214.523Z" fill="black"/>
<path d="M375.598 300V285.455H377.793V292.401H377.97L384.071 285.455H386.834L380.967 292.003L386.855 300H384.213L379.511 293.501L377.793 295.476V300H375.598ZM389.392 300V289.091H391.516V300H389.392ZM390.465 287.408C390.096 287.408 389.778 287.285 389.513 287.038C389.253 286.787 389.123 286.489 389.123 286.143C389.123 285.793 389.253 285.495 389.513 285.249C389.778 284.998 390.096 284.872 390.465 284.872C390.834 284.872 391.149 284.998 391.409 285.249C391.675 285.495 391.807 285.793 391.807 286.143C391.807 286.489 391.675 286.787 391.409 287.038C391.149 287.285 390.834 287.408 390.465 287.408ZM398.947 304.318C398.08 304.318 397.335 304.205 396.71 303.977C396.089 303.75 395.583 303.449 395.19 303.075C394.797 302.701 394.503 302.292 394.309 301.847L396.134 301.094C396.262 301.302 396.433 301.522 396.646 301.754C396.863 301.991 397.157 302.192 397.526 302.358C397.9 302.524 398.381 302.607 398.968 302.607C399.773 302.607 400.438 302.41 400.964 302.017C401.489 301.629 401.752 301.009 401.752 300.156V298.011H401.617C401.489 298.243 401.305 298.501 401.063 298.786C400.826 299.07 400.5 299.316 400.083 299.524C399.666 299.732 399.124 299.837 398.457 299.837C397.595 299.837 396.818 299.635 396.127 299.233C395.441 298.826 394.896 298.227 394.494 297.436C394.096 296.641 393.897 295.663 393.897 294.503C393.897 293.343 394.094 292.348 394.487 291.52C394.884 290.691 395.429 290.057 396.12 289.616C396.811 289.171 397.595 288.949 398.471 288.949C399.148 288.949 399.695 289.062 400.112 289.29C400.528 289.512 400.853 289.773 401.085 290.071C401.321 290.369 401.504 290.632 401.631 290.859H401.788V289.091H403.869V300.241C403.869 301.179 403.651 301.948 403.215 302.55C402.78 303.151 402.19 303.596 401.447 303.885C400.708 304.174 399.875 304.318 398.947 304.318ZM398.925 298.075C399.536 298.075 400.052 297.933 400.474 297.649C400.9 297.36 401.222 296.948 401.44 296.413C401.662 295.874 401.773 295.227 401.773 294.474C401.773 293.741 401.665 293.094 401.447 292.536C401.229 291.977 400.909 291.541 400.488 291.229C400.067 290.911 399.546 290.753 398.925 290.753C398.286 290.753 397.754 290.919 397.327 291.25C396.901 291.577 396.579 292.022 396.362 292.585C396.148 293.149 396.042 293.778 396.042 294.474C396.042 295.189 396.151 295.817 396.369 296.357C396.586 296.896 396.908 297.318 397.335 297.621C397.765 297.924 398.296 298.075 398.925 298.075ZM409.891 300.241C409.2 300.241 408.575 300.114 408.016 299.858C407.458 299.598 407.015 299.221 406.688 298.729C406.366 298.236 406.205 297.633 406.205 296.918C406.205 296.302 406.324 295.795 406.56 295.398C406.797 295 407.117 294.685 407.519 294.453C407.922 294.221 408.371 294.046 408.869 293.928C409.366 293.809 409.872 293.719 410.388 293.658C411.042 293.582 411.572 293.52 411.979 293.473C412.387 293.421 412.683 293.338 412.867 293.224C413.052 293.111 413.144 292.926 413.144 292.67V292.621C413.144 292 412.969 291.52 412.619 291.179C412.273 290.838 411.757 290.668 411.07 290.668C410.355 290.668 409.792 290.826 409.38 291.143C408.973 291.456 408.691 291.804 408.535 292.188L406.539 291.733C406.776 291.07 407.121 290.535 407.576 290.128C408.035 289.716 408.563 289.418 409.16 289.233C409.756 289.044 410.384 288.949 411.042 288.949C411.478 288.949 411.939 289.001 412.427 289.105C412.919 289.205 413.379 289.389 413.805 289.659C414.236 289.929 414.588 290.315 414.863 290.817C415.138 291.314 415.275 291.96 415.275 292.756V300H413.201V298.509H413.116C412.978 298.783 412.772 299.053 412.498 299.318C412.223 299.583 411.871 299.804 411.44 299.979C411.009 300.154 410.493 300.241 409.891 300.241ZM410.353 298.537C410.94 298.537 411.442 298.421 411.859 298.189C412.28 297.957 412.6 297.654 412.817 297.28C413.04 296.901 413.151 296.496 413.151 296.065V294.659C413.076 294.735 412.929 294.806 412.711 294.872C412.498 294.934 412.254 294.988 411.979 295.036C411.705 295.078 411.437 295.118 411.177 295.156C410.916 295.189 410.699 295.218 410.523 295.241C410.112 295.294 409.735 295.381 409.394 295.504C409.058 295.627 408.788 295.805 408.585 296.037C408.386 296.264 408.286 296.567 408.286 296.946C408.286 297.472 408.48 297.869 408.869 298.139C409.257 298.404 409.752 298.537 410.353 298.537ZM420.227 285.455V300H418.103V285.455H420.227ZM423.084 300V289.091H425.207V300H423.084ZM424.156 287.408C423.787 287.408 423.47 287.285 423.205 287.038C422.944 286.787 422.814 286.489 422.814 286.143C422.814 285.793 422.944 285.495 423.205 285.249C423.47 284.998 423.787 284.872 424.156 284.872C424.526 284.872 424.84 284.998 425.101 285.249C425.366 285.495 425.499 285.793 425.499 286.143C425.499 286.489 425.366 286.787 425.101 287.038C424.84 287.285 424.526 287.408 424.156 287.408Z" fill="black"/>
<path d="M355.074 400.323L357.699 403.448L363.824 406.948L365.949 409.073" stroke="#0978AB" stroke-width="1.1339" stroke-miterlimit="3.8637" stroke-linejoin="round"/>
<path d="M178.059 502.539C178.059 502.539 182.58 503.942 183.984 503.163C185.387 502.383 186.86 500.044 186.08 498.642C185.301 497.239 183.274 495.368 183.274 494.745C183.274 494.12 182.806 492.873 184.522 491.626C186.237 490.379 187.796 488.82 186.549 487.884C185.301 486.948 184.677 487.259 184.677 485.234C184.677 483.207 186.081 479.776 183.586 478.841C181.091 477.906 180.624 474.788 180.779 471.513C180.935 468.24 181.489 464.966 179.774 464.966C178.059 464.966 174.784 465.278 174.784 463.563C174.784 461.848 176.187 458.262 175.096 456.703C174.004 455.144 173.693 451.558 171.043 451.401C168.393 451.246 167.133 451.727 165.574 450.324C164.015 448.921 164.133 447.043 162.574 446.574C161.015 446.107 157.915 446.133 156.824 444.574C155.732 443.015 155.2 438.227 155.824 436.824C156.448 435.42 158.259 435.966 159.973 436.123C161.688 436.279 163.871 436.435 164.027 434.563C164.183 432.693 163.403 430.51 165.119 429.886C166.834 429.263 167.302 429.263 167.302 427.704C167.302 426.144 167.77 423.182 169.329 425.208C170.888 427.235 171.356 427.391 172.447 426.612C173.539 425.832 173.695 423.649 172.291 422.713C170.888 421.779 169.953 421.154 168.861 421.154C167.77 421.154 167.146 419.127 169.017 417.413C170.888 415.697 171.823 414.607 174.162 415.541C174.162 415.541 176.345 416.166 177.904 416.321C179.463 416.477 179.618 416.165 178.528 414.294C177.436 412.424 176.189 409.617 174.63 407.747C173.07 405.875 171.512 403.381 171.512 400.731C171.512 398.081 175.254 393.403 177.905 392.779" stroke="#646464" stroke-width="1.1339" stroke-miterlimit="3.8637" stroke-linejoin="round"/>
<path d="M389.449 141.692C388.686 144.743 393.154 146.691 394.946 148.034C396.555 149.241 396.823 151.366 397.483 152.685C398.047 153.814 399.46 155.508 400.442 156.491C401.372 157.421 401.712 159.883 402.133 161.564C402.521 163.116 404.613 164.833 405.515 166.638C406.382 168.371 406.972 170.397 407.629 171.712C408.38 173.215 409.869 173.952 411.011 175.094C412.488 176.571 414.043 177.227 415.662 177.631C418.14 178.25 419.788 177.196 419.044 180.168C418.658 181.714 416.482 185.095 416.085 186.087C415.289 188.076 415.239 189.626 415.239 192.006C415.239 193.713 416.888 194.881 417.776 196.657C418.516 198.138 419.621 199.924 420.313 201.307C421.42 203.522 422.329 204.918 423.272 206.804C424.155 208.571 425.88 209.288 427.077 210.186C428.355 211.144 429.627 213.199 430.036 214.837C430.504 216.707 432.394 217.504 432.996 219.911C433.128 220.437 436.594 222.453 437.225 223.293C438.532 225.037 439.245 226.301 439.761 228.367C440.25 230.323 440.25 232.331 439.761 234.286C439.301 236.13 439.761 238.717 439.761 240.628C439.761 242.66 441.004 245.229 441.875 246.97C442.724 248.668 442.785 251.034 443.143 252.467C443.636 254.437 444.412 255.809 444.412 258.386C444.412 261.08 444.621 262.827 443.143 264.306C441.878 265.571 440.884 267.557 440.184 268.956C439.878 269.567 437.667 270.431 436.802 270.647" stroke="#646464" stroke-width="1.1339" stroke-miterlimit="3.8637" stroke-linejoin="round"/>
<path d="M253.802 140.825L251.172 141.658L249.403 141.414L248.209 141.249L244.712 141.385L232.283 148.631L232.623 150.794L231.886 153.02L229.367 154.339L226.317 156.637L222.667 160.621L221.621 161.763L214.149 171.389L213.84 171.786L201.89 171.609L193.712 171.998L192.544 172.556L189.904 173.815L187.548 175.458L186.106 176.931L183.625 183.34L179.087 188.302L173.611 198.078L171.506 200.346L169.176 202.857L165.803 205.206L160.29 210.537L158.41 215.346L154.911 220.563L153.955 224.179L153.227 225.42L153.341 227.545L154.279 228.131L154.335 228.828L154.365 229.205L153.205 230.842L151.427 231.979L149.544 234.015L145.176 239.776L143.399 241.025L142.293 242.437L139.54 247.737L132.899 256.907L127.434 264.452L122.428 274.655L120.902 279.778L121.653 289.528L121.827 291.79L124.429 303.958L124.382 305.194L128.657 316.957L128.79 317.408L130.736 324.017L133.411 333.098L135.027 340.219L134.904 346.231L134.426 349.548L132.846 355.009L130.906 358.519L122.469 373.78L121.434 375.654L116.016 383.39L114.917 385.982L112.511 389.121L109.936 392.479L106.207 394.417L101.915 395.797L92.409 394.744L89.56 394.765L87.721 395.453L86.782 396.976L83.563 400.089L82.679 402.014L82.242 402.964L82.144 404.818L80.881 407.973L79.058 410.908L75.507 414.417L73.474 419.263L72.528 419.888L70.741 420.013L61.176 418.566L58.094 419.155L55.934 420.008L54.601 421.141L51.945 424.924L48.351 431.85L47.506 434.462L47.29 438.271L47.53 440.629L49.125 444.943L52.371 450.634L52.42 451.971L52.169 453.594L51.452 455.202L50.433 456.143L44.9 459.469L44.588 459.707C42.73 461.483 42.206 462.418 43.214 464.914L43.515 465.407L45.865 468.134L46.125 468.38L52.717 473.466L53.564 475.537L55.753 493.742L55.475 496.436C55.055 496.799 53.883 497.652 53.7 498.406C52.782 502.187 54.115 502.518 57.491 503.9C62.035 508.421 60.406 507.939 65.752 509.428L68.184 511.085L68.621 511.301L71.316 512.2C73.346 513.679 74.256 515.158 76.527 513.723L79 513.619L83.609 515.628L88.395 519.477L90.555 522.456L91.078 523.456L92.497 526.124L92.902 527.326" stroke="#646464" stroke-width="2.5512" stroke-miterlimit="3.8637" stroke-linejoin="round"/>
<path d="M92.51 526.123L95.972 523.926L96.554 520.886L97.873 517.706L99.048 513.111L99.21 511.216L99.296 510.209L98.362 501.649L98.554 500.366L100.076 497.454L100.265 495.766L98.901 492.673L98.275 489.575L99.667 487.203L100.584 483.959L101.251 483.549L104.402 483.121L106.801 480.877L110.466 482.688L114.941 482.468L117.935 484.343L119.883 484.658L120.985 484.587L123.566 482.096L125.443 481.433L127.585 481.682L128.69 482.198L130.978 485.185L132.934 487L137.82 488.607L139.367 489.116L141.659 488.98L144.789 489.553L149.154 491.239L150.45 491.385L154.95 490.153L159.405 490.015L163.15 491.914L165.496 493.823L168.976 494.942L171.997 496.95L173.141 497.41L174.796 497.563L176.771 497.746L177.968 498.414L178.597 499.347L179.514 504.184L178.512 506.969L178.257 509.143L179.672 511.216L183.012 514.316L183.243 517.492L185.396 521.225L186.087 523.512L185.837 524.764L183.44 526.6L181.715 527.921L181.106 529.697L182.897 533.538L184.412 535.037L186.039 537.733L186.005 540.078L184.984 542.118L185.043 543.003L188.974 548.703L189.095 550.994L189.616 551.354L191.635 550.974L193.68 546.614L194.185 545.537L197.021 543.64L200.809 544.287L202.259 544.016L205.206 543.003L207.317 541.215L210.42 540.201L211.444 540.235L212.96 540.285L216.295 542.655L224.343 544.518L225.915 545.274L226.476 545.544L230.704 549.313L234.133 550.328L236.307 549.946L238.474 548.731L240.224 547.05L247.138 543.088L251.2 543.572L251.918 543.964L257.713 544.228L258.965 544.291L259.46 544.247C262.347 543.567 263.33 543.511 264.111 543.086C264.84 542.69 265.395 541.974 267.154 540.136L267.931 539.859L270.432 539.942L279.084 545.312L279.517 545.506L280.318 545.742C282.556 548.333 282.437 547.901 285.951 547.206L286.34 547.081L288.398 546.146C290.901 545.912 292.502 545.808 293.824 545.685C295.124 545.563 296.156 545.43 297.513 544.147L297.862 543.688L300.041 539.567L300.16 539.285C300.378 538.615 300.69 537.534 301.104 536.353C301.537 535.123 302.064 533.783 301.849 532.689L303.114 532.584L303.546 532.493L308.583 530.75L309.575 530.812L310.521 531.534C311.915 534.292 312.46 535.042 315.688 535.213C319.284 538.091 319.203 536.742 322.703 533.442L323.833 533.208L324.378 532.996L325.57 532.287C330.444 531.93 332.049 532.91 333.9 528.835L335.651 527.865L336.088 527.524C337.886 525.596 337.49 526.182 338.372 523.543L344.572 515.119L344.845 514.565L346.804 507.849C348.848 505.88 348.305 505.218 349.118 501.579C351.071 497.126 351.841 496.823 349.267 492.562L349.772 489.496L349.794 489.145L349.516 481.416L349.39 480.82L347.293 475.6L347.402 472.208L347.703 471.112C350.712 465.75 349.997 468.003 350.809 462.23L352.383 457.602L352.977 456.825L354.542 455.785C359.514 453.808 358.713 454.805 360.084 449.746L360.143 449.189L359.573 438.457L359.515 438.09L357.73 431.465L357 425.371L356.865 424.874L354.673 419.847L354.524 418.855L354.932 416.439C357.637 411.772 356.984 413.674 357.108 407.743L357.14 406.936L357.318 405.326L362.789 408.447L366.392 411.476L368.521 411.635L375.421 412.151L379.394 414.8L382.949 418.528L384.097 420.439L386.576 424.563L393.148 431.27L398.523 435.572L403.664 437.353L406.016 437.547L407.722 437.21L412.618 435.8L416.564 434.663L418.053 433.952L420.757 431.674L424.387 425.415L426.395 422.874L429.153 420.81L429.57 419.625L430.003 414.038L430.473 412.799L431.321 412.093L432.494 411.975L434.236 413.121L439.099 416.319L444.665 417.826L448.459 418.222L454.491 418.007L458.906 416.089L464.83 415.821L468.016 414.388L471.16 412.973L473.95 411.887L475.918 408.794L476.067 408.503L477.476 404.996L478.1 404.257L480.566 402.817L481.367 402.756L482.244 403.088L484.973 406.215L485.448 406.599C489.543 408.872 489.967 408.599 493.938 406.216L494.547 406.142L494.355 407.304L494.363 407.929C494.759 409.98 495.247 411.425 497.065 412.72C498.166 415.735 498.916 416.951 500.609 418.177C501.725 418.986 503.253 420.101 505.562 420.659L508.819 422.352C513.149 427.428 511.271 426.511 517.653 427.297L520.273 428.94L520.746 429.148L525.157 430.357L527.179 432.671C529.537 435.369 536.854 429.456 537.314 429.17L541.105 427.815L544.174 428.567L544.551 428.617L547.107 428.682L549.018 430.037C550.116 430.653 551.136 431.65 552.392 431.734C556.27 431.995 556.538 431.405 558.201 427.914C563.285 423.622 561.185 425.781 565.147 418.023L565.632 417.665L566.835 417.463L567.348 417.293L569.823 416.026L570.656 415.88L573.687 416.954C575.79 419.714 575.868 420.551 578.712 422.073L579.158 422.239L582.374 422.965C582.553 423.116 584.289 424.854 585.187 424.965C587 425.189 588.244 424.932 589.259 424.551C590.818 423.967 591.84 422.863 593.557 420.972L596.466 418.936C599.559 418.757 599.827 419.247 601.746 417.589L602.091 417.187L604.483 413.351L605.647 411.268L607.608 407.754C608.902 407.69 609.459 407.229 609.99 406.078C612.544 404.998 613.902 401.562 610.552 400.71L610.168 399.245C611.558 395.968 611.944 396.304 611.641 393.619L611.493 393.083L610.313 390.495L609.213 378.531L609.724 377.076L609.823 376.528L609.869 374.395C610.977 372.689 610.694 372.475 610.296 370.352L610.745 368.472L611.636 365.694L613.584 361.845L613.707 361.531L615.103 356.631L617.268 354.191L617.565 353.726L618.688 351.161L618.799 350.814L619.907 345.522C622.899 340.884 624.196 338.939 624.33 337.009C624.475 334.926 623.239 332.859 620.525 327.445L619.452 325.823L617.234 324.829L616.245 324.18L615.431 323.132L612.182 318.947L606.12 310.108L596.279 291.624L595.19 291.818L594.364 291.922M594.364 291.922L592.999 293.027L591.573 294.502M594.364 291.922C598.268 291.5 598.914 289.357 600.074 286.09C601.64 283.726 601.486 284.365 601.764 281.755L601.754 281.299L601.458 279.363L603.515 276.614L603.64 276.422C604.095 275.614 604.016 275.754 604.598 274.72L604.797 274.167C605.437 270.641 605.262 268.355 601.458 267.342C602.791 265.946 603.104 265.935 603.524 264.336L603.572 264.071L603.995 260.027L603.98 259.551L602.858 252.847L602.934 251.559L604.854 248.612L605.042 248.231C605.062 248.175 606.086 245.82 605.938 244.985C605.081 240.135 605.418 239.98 601.257 237.14C603.386 234.193 604.153 234.288 602.891 231.241L603.037 227.061L602.998 226.624L602.248 223.165L603.116 221.151C606.84 219.52 606.573 217.888 606.038 214.87C605.926 214.235 603.96 212.999 603.96 212.999L601.497 209.455L593.884 198.362L580.682 180.384L579.559 178.854L577.615 162.768L577 158.731L576.19 156.5L572.634 152.273L567.863 149.157L566.639 148.358L561.642 143.567L559.34 143.011L558.315 140.782L556.445 140.439L542.69 135.513L543.006 131.989L541.784 129.354L541.661 129.088L541.464 128.762C539.21 125.796 538.787 126.254 535.106 126.692L532.038 125.215L531.715 125.096L528.789 124.337L528.456 122.431L528.256 121.87L525.445 116.862L525.528 115.418C526.713 111.46 526.966 112.308 525.23 108.893L525.053 108.613L522.889 105.812L522.337 102.2L522.283 101.958L521.287 98.6416L521.122 98.2606L517.526 92.0806C516.833 88.8306 517.318 88.6596 515.396 86.8486C515.156 85.3726 515.179 84.6286 513.836 83.8436C513.924 82.8286 513.37 82.0106 512.938 81.1206C509.661 74.9796 509.958 76.3246 502.285 75.8796C502.322 75.2906 501.906 72.8496 501.906 72.8496C502.675 70.7526 503.379 68.9456 503.904 67.4566C504.829 64.8336 504.784 63.1966 500.587 62.6946L499.052 62.0436L498.523 61.3556L499.102 59.3766C499.516 57.9946 500.348 56.4726 499.962 54.9756L505.125 48.3606L504.171 45.5626" stroke="#646464" stroke-width="2.5512" stroke-miterlimit="3.8637" stroke-linejoin="round"/>
<path d="M253.797 140.82L254.708 140.271L257.881 140.029L268.703 140.591L274.027 140.115L276.918 138.25L284.28 130.178L284.994 129.774L287.869 128.146L289.534 127.699L297.875 127.739L300.741 129.502L304.328 133.803L307.346 134.32L308.636 134.092L309.6 133.543L311.172 128.279L312.741 126.499L314.104 124.952L316.483 119.735L317.176 118.863L319.166 118.846L319.707 119.166L327.988 131.603L330.785 131.471L333.057 132.859L333.715 134.369L333.667 136.527L333.597 139.621L335.431 146.698L335.738 151.243L338.482 157.541L341.809 162.941L342.906 165.476L343.991 166.55L346.2 166.802L347.148 166.252L348.268 165.602L368.51 154.255L371.207 151.538L373.184 149.788L374.471 149.289L375.547 149.172L376.413 149.706L376.775 150.42L377.398 151.647L379.459 153.524L381.932 153.286L383.431 152.299L383.906 151.158L384.053 149.478L382.797 147.377L382.782 145.536L383.148 144.234L383.95 143.577L387.384 142.356L389.625 140.117L391.071 139.239L395.585 138.387L400.139 138.504L401.883 138.549L403.06 137.726L405.456 134.782L406.773 131.36L408.702 130.477L410.161 131.168L411.936 131.044L412.951 130.169L413.744 128.592L413.753 123.286L414.116 121.713L416.821 117.033L417.025 115.786L416.192 113.01L415.696 111.359L415.9 110.058L418.147 108.468L419.599 108.402L422.577 110.541L424.405 110.471L425.123 106.296L427.868 106.38L434.607 101.665L436.894 98.5586L438.178 94.8676L445.057 91.3916L446.403 89.4276L446.331 89.0776L446.202 88.4526L446.776 87.2756L448.908 86.5446L449.802 84.7146L450.902 84.5766L453.088 73.2256L454.888 71.3246L458.632 69.7356L460.434 68.2246L461.919 67.5626L463.035 67.2626L462.675 63.9276L462.613 60.4196L462.645 60.0526L463.112 57.6486L463.256 57.2156L465.28 53.0246L465.141 51.4106L465.156 50.9846C465.859 46.5016 466.548 46.4966 470.671 44.9766C471.713 44.5926 474.011 45.8396 474.439 46.0146L478.98 47.0996L479.347 47.0966C479.706 46.9116 480.81 46.2456 481.428 46.2456L488.206 46.2416L489.69 45.8126C491.484 44.1796 493.021 42.0086 495.579 43.5856C496.888 42.6996 498.032 43.2526 499.569 43.4896L500.043 43.6326L504.165 45.5656L506 46.0444" stroke="#646464" stroke-width="2.5512" stroke-miterlimit="3.8637" stroke-linejoin="round"/>
<path d="M370.85 332.911C370.306 332.676 369.813 332.356 369.264 331.976C367.89 331.024 366.51 330.482 365.002 329.521L364.481 328.733L363.964 327.936L363.796 327.688C363.131 326.122 362.805 324.283 363.501 322.685C365.111 321.414 367.248 322.115 368.639 319.721L368.73 319.523C370.153 315.426 365.834 313.361 363.96 310.653C363.933 308.287 364.711 303.69 365.779 302.06C365.96 301.784 366.977 300.955 367.465 300.681C369.538 299.515 366.81 296.336 366.392 295.275L366.129 294.546C365.998 294.214 365.829 293.909 365.605 293.632L365.084 293.005C364.532 291.969 364.255 290.768 363.892 289.659C363.015 286.979 361.517 285 358.806 284.012C358.534 283.918 358.282 283.82 358.018 283.709L357.218 282.825C356.187 281.837 355.368 281.157 354.51 279.992C352.814 277.689 349.731 277.674 346.917 276.596C345.692 276.127 344.519 275.366 343.534 274.28C342.824 273.522 341.952 272.99 341.08 272.441C338.713 270.952 340.304 271.598 337.727 270.607C334.242 269.266 331.308 269.942 328.283 271.785C326.52 272.859 324.261 272.85 322.45 271.726L322.258 271.525C322.035 271.283 321.805 271.047 321.524 270.873C320.975 270.532 320.436 270.456 319.899 270.283C318.376 269.793 316.867 269.721 315.188 269.924C311.044 270.424 312.613 265.668 310.877 263.201C309.974 261.919 309.043 261.523 308.143 261.174C306.051 260.363 304.13 260.555 303.141 255.815C302.099 250.827 300.917 250.632 296.921 248.02C296.85 246.991 296.639 245.887 296.3 244.931L296.08 244.558C293.235 241.346 292.821 243.141 289.56 242.454C288.441 242.218 285.808 240.137 284.953 239.193C281.111 234.952 270.712 233.884 270.314 241.844C270.245 243.231 270.927 247.762 271.474 249.007C274.745 256.455 270.851 256.422 271.953 261.706C272.646 265.031 271.951 268.313 271.099 271.548C270.914 272.249 272.172 275.324 272.317 276.545C272.523 278.272 272.421 283.724 272.014 285.269C270.842 289.723 267.974 289.532 269.773 296.007L269.872 296.249C270.5 297.394 273.409 299.164 274.488 299.828L274.862 300.577C274.594 302.166 272.464 303.224 270.297 303.228C267.565 303.604 265.281 300.862 261.033 302.64C260.222 302.979 260.245 304.392 260.178 304.968L260.219 305.43C260.536 306.476 261.213 307.157 261.732 308.072L261.879 308.434L262.273 309.39C263.198 311.659 262.588 311.856 261.58 314.414L261.291 315.057L261.101 315.485C260.647 316.533 260.866 317.796 261.122 318.863C261.98 322.435 261.085 322.969 261.085 326.306C261.085 329.006 261.738 328.547 261.091 331.283C260.183 335.115 258.594 336.013 258.738 340.485C256.78 342.317 257.063 341.111 256.143 343.698C255.491 345.532 254.274 346.982 253.156 348.435C252.576 349.189 251.919 349.943 251.6 350.753L251.545 350.935L251.212 352.515L251.188 352.749C251.188 353.757 251.959 355.812 252.634 356.647L253.072 357.162C253.597 357.834 254.345 360.196 254.423 361.06C253.673 362.98 251.565 365.509 249.447 366.041C247.659 366.491 245.675 367.153 244.421 368.633C243.935 368.386 243.439 368.165 243.079 368.075C242.079 367.825 240.829 368.075 240.329 369.325C239.829 370.575 237.579 372.075 237.579 372.075C237.579 372.075 236.079 374.325 233.829 374.575C231.579 374.825 230.829 377.575 229.829 378.075C228.829 378.575 226.829 378.325 225.579 378.825C224.329 379.325 219.829 384.575 219.079 385.575C218.329 386.575 216.579 387.075 216.579 387.075C216.579 387.075 215.579 386.575 214.329 386.575C213.079 386.575 211.579 387.575 209.579 388.075C207.579 388.575 207.329 387.075 207.329 387.075C207.329 387.075 206.829 385.575 206.079 384.325C205.329 383.075 204.829 383.075 203.829 383.075H202.079L201.579 381.575C201.579 381.575 201.579 380.075 201.079 377.825C200.579 375.575 198.079 376.825 196.829 377.325C195.579 377.825 192.329 382.575 192.329 382.575L191.829 385.575H189.829C189.829 385.575 188.829 386.075 187.329 387.325C185.829 388.575 185.579 389.825 185.829 392.075C186.079 394.325 183.561 393.688 183.561 393.688C180.608 393.688 179.166 392.843 176.358 392.843" stroke="#646464" stroke-width="1.1339" stroke-miterlimit="3.8637" stroke-linejoin="round"/>
<path d="M214.151 171.386L217.074 175.573L221.074 178.323C221.074 178.323 226.574 183.573 227.824 184.073C229.074 184.573 231.074 187.573 231.074 187.573C231.074 187.573 233.824 189.323 234.824 190.323C235.824 191.323 237.324 191.573 238.574 190.073C239.824 188.573 241.824 190.323 243.324 191.823C244.824 193.323 246.978 194.544 246.978 194.544C249.39 195.148 251.948 195.769 253.727 196.658C255.71 197.649 258.991 197.081 261.338 197.081C262.339 197.081 263.094 197.437 263.666 197.987C261.693 200.486 262.839 202.901 263.077 206.468C263.2 208.316 262.825 209.991 262.825 211.798C262.825 214.422 263.846 218.021 263.907 220.556C264.039 226.11 259.65 229.658 263.403 235.914C265.784 239.883 267.687 239.284 270.308 240.575" stroke="#646464" stroke-width="1.1339" stroke-miterlimit="3.8637" stroke-linejoin="round"/>
<path d="M370.449 332.635L371.78 334.325C370.782 335.847 372.072 339.982 372.116 341.825C372.129 342.353 371.914 345.528 371.621 346.013C371.14 346.812 369.089 349.408 368.143 349.756L367.715 349.904L367.322 350.039C367.141 350.115 367.082 350.157 367.024 350.201L366.76 350.415L366.413 350.694C366.133 350.906 365.843 351.064 365.513 351.183L365.078 351.332C364.945 351.377 364.838 351.388 364.732 351.427C364.179 351.816 363.561 353.056 363.57 353.802C363.623 357.908 361.191 359.176 362.803 363.783C363.878 366.856 366.341 370.949 365.038 374.197L364.841 374.679L364.642 375.158C364.408 375.711 364.167 375.946 363.697 376.307L363.397 376.553C363.342 376.624 363.292 376.705 363.236 376.806L363.045 377.177C362.528 378.188 361.629 378.876 360.813 379.636C360.581 380.307 360.708 379.941 360.395 380.85C359.769 382.439 359.606 382.236 359.801 384.386C360.594 393.18 356.138 391.594 356.171 397.993C356.176 398.952 356.212 399.919 356.152 400.816L356.207 401.82L356.136 403.758L357.315 405.328" stroke="#646464" stroke-width="1.1339" stroke-miterlimit="3.8637" stroke-linejoin="round"/>
<path d="M370.257 332.607C370.997 331.669 372.099 330.902 373.621 330.117C374.646 329.588 375.019 329.415 375.96 328.717C377.315 327.714 378.793 327.116 380.389 326.773L380.854 326.771C382.523 327.112 384.019 328.45 384.589 330.067L384.987 330.323C385.937 330.139 387.142 330.155 388.094 330.422C390.013 329.642 390.387 329.115 392.74 329.131C394.71 329.145 396.527 328.507 398.438 328.004C399.578 327.704 402.193 325.399 402.666 324.238L402.923 323.588C403.411 322.403 404.273 321.537 405.451 321.022C407.732 320.024 411.691 318.795 414.184 319.469C418.159 320.543 418.246 324.182 420.97 325.912L421.553 326.266C422.166 326.634 422.785 327.03 423.24 327.591L423.488 327.916L423.671 328.154C424.214 328.654 424.979 329 425.625 329.132C426.318 328.923 427.43 328.377 428.563 328.039C428.563 328.039 429.074 323.323 429.074 321.573C429.074 319.823 429.574 314.823 429.824 313.823C430.074 312.823 430.074 304.323 430.074 304.323C430.074 304.323 430.324 301.073 431.074 299.573C431.824 298.073 431.324 296.823 433.074 296.573C434.824 296.323 438.574 296.323 438.574 296.323C438.574 296.323 441.574 293.823 440.574 290.823C439.574 287.823 439.074 286.823 439.574 285.573C440.074 284.323 441.074 282.823 441.074 282.823C441.074 282.823 441.074 281.073 440.324 279.323C439.574 277.573 438.824 274.823 438.824 274.823L436.953 270.679C435.276 269.912 433.224 269.217 432.575 268.957C430.817 268.254 426.326 268.074 424.824 266.572C422.906 264.653 421.494 261.682 419.891 260.078C418.645 258.832 414.917 256.745 413.125 255.85C410.224 254.399 405.341 252.343 404.247 252.891C402.251 253.889 401.496 255.15 400.018 257.119C398.39 259.29 399.538 261.347 396.213 261.347C392.461 261.347 390.356 261.827 389.025 265.152C388.27 267.041 386.957 267.677 385.22 268.112C384.476 268.298 381.474 271.012 380.147 272.34C378.083 274.403 375.439 272.735 373.804 271.917C371.317 270.673 371.49 268.584 368.308 269.38C367.333 269.624 366.11 273.692 365.348 274.453C363.681 276.12 363.225 277.881 362.812 279.95C362.327 282.374 360.949 284.853 360.949 285.135" stroke="#646464" stroke-width="1.1339" stroke-miterlimit="3.8637" stroke-linejoin="round"/>
<path d="M491.598 263V248.455H500.717V250.344H493.793V254.776H500.241V256.658H493.793V261.111H500.803V263H491.598ZM506.653 263.241C505.962 263.241 505.337 263.114 504.778 262.858C504.219 262.598 503.777 262.221 503.45 261.729C503.128 261.236 502.967 260.633 502.967 259.918C502.967 259.302 503.085 258.795 503.322 258.398C503.559 258 503.878 257.685 504.281 257.453C504.683 257.221 505.133 257.046 505.63 256.928C506.127 256.809 506.634 256.719 507.15 256.658C507.804 256.582 508.334 256.52 508.741 256.473C509.148 256.421 509.444 256.338 509.629 256.224C509.814 256.111 509.906 255.926 509.906 255.67V255.621C509.906 255 509.731 254.52 509.38 254.179C509.035 253.838 508.519 253.668 507.832 253.668C507.117 253.668 506.554 253.826 506.142 254.143C505.734 254.456 505.453 254.804 505.297 255.188L503.301 254.733C503.538 254.07 503.883 253.535 504.338 253.128C504.797 252.716 505.325 252.418 505.922 252.233C506.518 252.044 507.145 251.949 507.804 251.949C508.239 251.949 508.701 252.001 509.189 252.105C509.681 252.205 510.14 252.389 510.566 252.659C510.997 252.929 511.35 253.315 511.625 253.817C511.899 254.314 512.037 254.96 512.037 255.756V263H509.963V261.509H509.877C509.74 261.783 509.534 262.053 509.26 262.318C508.985 262.583 508.632 262.804 508.201 262.979C507.77 263.154 507.254 263.241 506.653 263.241ZM507.115 261.537C507.702 261.537 508.204 261.421 508.62 261.189C509.042 260.957 509.361 260.654 509.579 260.28C509.802 259.901 509.913 259.496 509.913 259.065V257.659C509.837 257.735 509.69 257.806 509.473 257.872C509.26 257.934 509.016 257.988 508.741 258.036C508.467 258.078 508.199 258.118 507.939 258.156C507.678 258.189 507.46 258.218 507.285 258.241C506.873 258.294 506.497 258.381 506.156 258.504C505.82 258.627 505.55 258.805 505.346 259.037C505.147 259.264 505.048 259.567 505.048 259.946C505.048 260.472 505.242 260.869 505.63 261.139C506.019 261.404 506.513 261.537 507.115 261.537ZM523.04 254.754L521.115 255.095C521.035 254.849 520.907 254.615 520.732 254.392C520.561 254.17 520.329 253.987 520.036 253.845C519.742 253.703 519.375 253.632 518.935 253.632C518.333 253.632 517.831 253.767 517.429 254.037C517.027 254.302 516.825 254.645 516.825 255.067C516.825 255.431 516.96 255.725 517.23 255.947C517.5 256.17 517.936 256.352 518.537 256.494L520.27 256.892C521.274 257.124 522.022 257.482 522.514 257.964C523.007 258.447 523.253 259.075 523.253 259.847C523.253 260.5 523.063 261.082 522.685 261.594C522.311 262.1 521.787 262.498 521.115 262.787C520.447 263.076 519.673 263.22 518.793 263.22C517.571 263.22 516.574 262.96 515.803 262.439C515.031 261.913 514.557 261.168 514.382 260.202L516.435 259.889C516.563 260.424 516.825 260.829 517.223 261.104C517.621 261.374 518.139 261.509 518.778 261.509C519.474 261.509 520.031 261.364 520.447 261.075C520.864 260.782 521.072 260.424 521.072 260.003C521.072 259.662 520.945 259.375 520.689 259.143C520.438 258.911 520.052 258.736 519.531 258.618L517.685 258.213C516.667 257.981 515.914 257.612 515.426 257.105C514.943 256.598 514.702 255.957 514.702 255.18C514.702 254.536 514.882 253.973 515.241 253.49C515.601 253.007 516.098 252.631 516.733 252.361C517.367 252.086 518.094 251.949 518.913 251.949C520.092 251.949 521.02 252.205 521.697 252.716C522.375 253.223 522.822 253.902 523.04 254.754ZM530.68 252.091V253.795H524.721V252.091H530.68ZM526.319 249.477H528.443V259.797C528.443 260.209 528.504 260.519 528.627 260.727C528.751 260.931 528.909 261.071 529.103 261.146C529.302 261.217 529.518 261.253 529.75 261.253C529.92 261.253 530.069 261.241 530.197 261.217C530.325 261.194 530.424 261.175 530.495 261.161L530.879 262.915C530.756 262.962 530.581 263.009 530.353 263.057C530.126 263.109 529.842 263.137 529.501 263.142C528.942 263.152 528.422 263.052 527.939 262.844C527.456 262.635 527.065 262.313 526.767 261.878C526.468 261.442 526.319 260.895 526.319 260.237V249.477ZM537.614 263.22C536.539 263.22 535.613 262.991 534.837 262.531C534.065 262.067 533.468 261.416 533.047 260.578C532.63 259.735 532.422 258.748 532.422 257.616C532.422 256.499 532.63 255.514 533.047 254.662C533.468 253.81 534.055 253.144 534.808 252.666C535.566 252.188 536.451 251.949 537.464 251.949C538.08 251.949 538.677 252.051 539.254 252.254C539.832 252.458 540.35 252.777 540.81 253.213C541.269 253.649 541.631 254.214 541.896 254.911C542.161 255.602 542.294 256.442 542.294 257.432V258.185H533.622V256.594H540.213C540.213 256.035 540.099 255.54 539.872 255.109C539.645 254.674 539.325 254.33 538.913 254.08C538.506 253.829 538.028 253.703 537.479 253.703C536.882 253.703 536.361 253.85 535.916 254.143C535.476 254.432 535.135 254.811 534.893 255.28C534.657 255.744 534.538 256.248 534.538 256.793V258.036C534.538 258.765 534.666 259.385 534.922 259.896C535.182 260.408 535.545 260.798 536.009 261.068C536.473 261.333 537.015 261.466 537.635 261.466C538.037 261.466 538.404 261.409 538.736 261.295C539.067 261.177 539.354 261.002 539.595 260.77C539.837 260.538 540.021 260.251 540.149 259.911L542.159 260.273C541.998 260.865 541.709 261.383 541.293 261.828C540.881 262.268 540.362 262.612 539.737 262.858C539.117 263.099 538.409 263.22 537.614 263.22ZM544.65 263V252.091H546.703V253.824H546.816C547.015 253.237 547.366 252.775 547.868 252.439C548.374 252.098 548.947 251.928 549.586 251.928C549.719 251.928 549.875 251.932 550.055 251.942C550.24 251.951 550.384 251.963 550.488 251.977V254.009C550.403 253.985 550.252 253.959 550.034 253.93C549.816 253.897 549.598 253.881 549.38 253.881C548.878 253.881 548.431 253.987 548.038 254.2C547.65 254.409 547.342 254.7 547.115 255.074C546.887 255.443 546.774 255.865 546.774 256.338V263H544.65ZM554.45 256.523V263H552.326V252.091H554.364V253.866H554.499C554.75 253.289 555.143 252.825 555.678 252.474C556.218 252.124 556.897 251.949 557.717 251.949C558.46 251.949 559.111 252.105 559.67 252.418C560.228 252.725 560.662 253.185 560.969 253.795C561.277 254.406 561.431 255.161 561.431 256.061V263H559.308V256.317C559.308 255.526 559.102 254.908 558.69 254.463C558.278 254.013 557.712 253.788 556.992 253.788C556.5 253.788 556.062 253.895 555.678 254.108C555.299 254.321 554.999 254.634 554.776 255.045C554.558 255.453 554.45 255.945 554.45 256.523Z" fill="black"/>
<path d="M256.531 403.276C256.455 402.603 256.143 402.082 255.594 401.713C255.045 401.339 254.353 401.152 253.52 401.152C252.923 401.152 252.407 401.247 251.972 401.436C251.536 401.621 251.197 401.876 250.956 402.203C250.719 402.525 250.601 402.892 250.601 403.304C250.601 403.65 250.681 403.948 250.842 404.199C251.008 404.45 251.223 404.661 251.489 404.831C251.759 404.997 252.047 405.136 252.355 405.25C252.663 405.359 252.959 405.449 253.243 405.52L254.663 405.889C255.127 406.003 255.603 406.157 256.091 406.351C256.579 406.545 257.031 406.801 257.447 407.118C257.864 407.435 258.2 407.828 258.456 408.297C258.716 408.766 258.847 409.327 258.847 409.98C258.847 410.804 258.634 411.536 258.207 412.175C257.786 412.814 257.173 413.318 256.368 413.688C255.568 414.057 254.599 414.241 253.463 414.241C252.374 414.241 251.432 414.069 250.636 413.723C249.841 413.377 249.218 412.887 248.768 412.253C248.319 411.614 248.07 410.856 248.023 409.98H250.224C250.267 410.506 250.438 410.944 250.736 411.294C251.039 411.64 251.425 411.898 251.893 412.068C252.367 412.234 252.885 412.317 253.449 412.317C254.069 412.317 254.621 412.22 255.104 412.026C255.591 411.827 255.975 411.552 256.254 411.202C256.534 410.847 256.673 410.432 256.673 409.959C256.673 409.528 256.55 409.175 256.304 408.901C256.063 408.626 255.733 408.399 255.317 408.219C254.905 408.039 254.438 407.88 253.918 407.743L252.199 407.274C251.034 406.957 250.111 406.491 249.429 405.875C248.752 405.259 248.413 404.445 248.413 403.432C248.413 402.594 248.641 401.862 249.095 401.237C249.55 400.612 250.165 400.127 250.942 399.781C251.718 399.431 252.594 399.256 253.57 399.256C254.554 399.256 255.423 399.429 256.176 399.774C256.934 400.12 257.53 400.596 257.966 401.202C258.402 401.803 258.629 402.494 258.648 403.276H256.531ZM265.894 414.22C264.871 414.22 263.979 413.986 263.216 413.517C262.454 413.048 261.862 412.393 261.441 411.55C261.019 410.707 260.809 409.722 260.809 408.595C260.809 407.464 261.019 406.474 261.441 405.626C261.862 404.779 262.454 404.121 263.216 403.652C263.979 403.183 264.871 402.949 265.894 402.949C266.917 402.949 267.809 403.183 268.571 403.652C269.334 404.121 269.926 404.779 270.347 405.626C270.768 406.474 270.979 407.464 270.979 408.595C270.979 409.722 270.768 410.707 270.347 411.55C269.926 412.393 269.334 413.048 268.571 413.517C267.809 413.986 266.917 414.22 265.894 414.22ZM265.901 412.438C266.564 412.438 267.113 412.262 267.549 411.912C267.984 411.562 268.306 411.095 268.515 410.513C268.728 409.93 268.834 409.289 268.834 408.588C268.834 407.892 268.728 407.253 268.515 406.67C268.306 406.083 267.984 405.612 267.549 405.257C267.113 404.902 266.564 404.724 265.901 404.724C265.233 404.724 264.679 404.902 264.239 405.257C263.803 405.612 263.479 406.083 263.266 406.67C263.058 407.253 262.953 407.892 262.953 408.588C262.953 409.289 263.058 409.93 263.266 410.513C263.479 411.095 263.803 411.562 264.239 411.912C264.679 412.262 265.233 412.438 265.901 412.438ZM280.26 409.476V403.091H282.391V414H280.303V412.111H280.189C279.938 412.693 279.536 413.179 278.982 413.567C278.432 413.95 277.748 414.142 276.929 414.142C276.228 414.142 275.608 413.988 275.068 413.68C274.533 413.368 274.112 412.906 273.804 412.295C273.501 411.685 273.349 410.929 273.349 410.03V403.091H275.473V409.774C275.473 410.518 275.679 411.109 276.091 411.55C276.503 411.99 277.038 412.21 277.696 412.21C278.094 412.21 278.489 412.111 278.882 411.912C279.28 411.713 279.609 411.412 279.869 411.01C280.134 410.607 280.265 410.096 280.26 409.476ZM290.336 403.091V404.795H284.377V403.091H290.336ZM285.975 400.477H288.099V410.797C288.099 411.209 288.161 411.519 288.284 411.727C288.407 411.931 288.565 412.071 288.76 412.146C288.958 412.217 289.174 412.253 289.406 412.253C289.576 412.253 289.725 412.241 289.853 412.217C289.981 412.194 290.081 412.175 290.152 412.161L290.535 413.915C290.412 413.962 290.237 414.009 290.01 414.057C289.782 414.109 289.498 414.137 289.157 414.142C288.599 414.152 288.078 414.052 287.595 413.844C287.112 413.635 286.721 413.313 286.423 412.878C286.125 412.442 285.975 411.895 285.975 411.237V400.477ZM295.043 407.523V414H292.92V399.455H295.015V404.866H295.15C295.406 404.279 295.796 403.813 296.322 403.467C296.847 403.122 297.534 402.949 298.381 402.949C299.129 402.949 299.783 403.103 300.342 403.411C300.905 403.718 301.341 404.178 301.648 404.788C301.961 405.394 302.117 406.152 302.117 407.061V414H299.994V407.317C299.994 406.517 299.788 405.896 299.376 405.456C298.964 405.011 298.391 404.788 297.657 404.788C297.155 404.788 296.705 404.895 296.308 405.108C295.915 405.321 295.604 405.634 295.377 406.045C295.155 406.453 295.043 406.945 295.043 407.523ZM309.653 414.22C308.578 414.22 307.652 413.991 306.876 413.531C306.104 413.067 305.507 412.416 305.086 411.578C304.669 410.735 304.461 409.748 304.461 408.616C304.461 407.499 304.669 406.514 305.086 405.662C305.507 404.81 306.094 404.144 306.847 403.666C307.605 403.188 308.49 402.949 309.504 402.949C310.119 402.949 310.716 403.051 311.293 403.254C311.871 403.458 312.389 403.777 312.849 404.213C313.308 404.649 313.67 405.214 313.935 405.911C314.201 406.602 314.333 407.442 314.333 408.432V409.185H305.661V407.594H312.252C312.252 407.035 312.138 406.54 311.911 406.109C311.684 405.674 311.364 405.33 310.952 405.08C310.545 404.829 310.067 404.703 309.518 404.703C308.921 404.703 308.4 404.85 307.955 405.143C307.515 405.432 307.174 405.811 306.933 406.28C306.696 406.744 306.577 407.248 306.577 407.793V409.036C306.577 409.765 306.705 410.385 306.961 410.896C307.221 411.408 307.584 411.798 308.048 412.068C308.512 412.333 309.054 412.466 309.674 412.466C310.076 412.466 310.443 412.409 310.775 412.295C311.106 412.177 311.393 412.002 311.634 411.77C311.876 411.538 312.06 411.251 312.188 410.911L314.198 411.273C314.037 411.865 313.748 412.383 313.332 412.828C312.92 413.268 312.401 413.612 311.776 413.858C311.156 414.099 310.448 414.22 309.653 414.22ZM316.689 414V403.091H318.742V404.824H318.855C319.054 404.237 319.405 403.775 319.907 403.439C320.413 403.098 320.986 402.928 321.625 402.928C321.758 402.928 321.914 402.932 322.094 402.942C322.279 402.951 322.423 402.963 322.527 402.977V405.009C322.442 404.985 322.291 404.959 322.073 404.93C321.855 404.897 321.637 404.881 321.419 404.881C320.917 404.881 320.47 404.987 320.077 405.2C319.689 405.409 319.381 405.7 319.154 406.074C318.926 406.443 318.813 406.865 318.813 407.338V414H316.689ZM326.489 407.523V414H324.365V403.091H326.403V404.866H326.538C326.789 404.289 327.182 403.825 327.717 403.474C328.257 403.124 328.937 402.949 329.756 402.949C330.499 402.949 331.15 403.105 331.709 403.418C332.268 403.725 332.701 404.185 333.009 404.795C333.316 405.406 333.47 406.161 333.47 407.061V414H331.347V407.317C331.347 406.526 331.141 405.908 330.729 405.463C330.317 405.013 329.751 404.788 329.031 404.788C328.539 404.788 328.101 404.895 327.717 405.108C327.339 405.321 327.038 405.634 326.815 406.045C326.598 406.453 326.489 406.945 326.489 407.523Z" fill="black"/>
<path d="M163.446 340L159.412 325.455H161.72L164.554 336.719H164.689L167.636 325.455H169.923L172.871 336.726H173.006L175.832 325.455H178.148L174.107 340H171.898L168.837 329.105H168.723L165.662 340H163.446ZM183.606 340.22C182.531 340.22 181.605 339.991 180.829 339.531C180.057 339.067 179.46 338.416 179.039 337.578C178.622 336.735 178.414 335.748 178.414 334.616C178.414 333.499 178.622 332.514 179.039 331.662C179.46 330.81 180.048 330.144 180.8 329.666C181.558 329.188 182.443 328.949 183.457 328.949C184.072 328.949 184.669 329.051 185.246 329.254C185.824 329.458 186.343 329.777 186.802 330.213C187.261 330.649 187.623 331.214 187.888 331.911C188.154 332.602 188.286 333.442 188.286 334.432V335.185H179.614V333.594H186.205C186.205 333.035 186.092 332.54 185.864 332.109C185.637 331.674 185.317 331.33 184.906 331.08C184.498 330.829 184.02 330.703 183.471 330.703C182.874 330.703 182.353 330.85 181.908 331.143C181.468 331.432 181.127 331.811 180.886 332.28C180.649 332.744 180.531 333.248 180.531 333.793V335.036C180.531 335.765 180.658 336.385 180.914 336.896C181.174 337.408 181.537 337.798 182.001 338.068C182.465 338.333 183.007 338.466 183.627 338.466C184.03 338.466 184.397 338.409 184.728 338.295C185.059 338.177 185.346 338.002 185.587 337.77C185.829 337.538 186.013 337.251 186.141 336.911L188.151 337.273C187.99 337.865 187.701 338.383 187.285 338.828C186.873 339.268 186.354 339.612 185.729 339.858C185.109 340.099 184.401 340.22 183.606 340.22ZM198.817 331.754L196.892 332.095C196.812 331.849 196.684 331.615 196.509 331.392C196.338 331.17 196.106 330.987 195.813 330.845C195.519 330.703 195.152 330.632 194.712 330.632C194.111 330.632 193.609 330.767 193.206 331.037C192.804 331.302 192.603 331.645 192.603 332.067C192.603 332.431 192.738 332.725 193.007 332.947C193.277 333.17 193.713 333.352 194.314 333.494L196.047 333.892C197.051 334.124 197.799 334.482 198.292 334.964C198.784 335.447 199.03 336.075 199.03 336.847C199.03 337.5 198.841 338.082 198.462 338.594C198.088 339.1 197.565 339.498 196.892 339.787C196.225 340.076 195.451 340.22 194.57 340.22C193.348 340.22 192.352 339.96 191.58 339.439C190.808 338.913 190.335 338.168 190.159 337.202L192.212 336.889C192.34 337.424 192.603 337.829 193 338.104C193.398 338.374 193.917 338.509 194.556 338.509C195.252 338.509 195.808 338.364 196.225 338.075C196.641 337.782 196.85 337.424 196.85 337.003C196.85 336.662 196.722 336.375 196.466 336.143C196.215 335.911 195.829 335.736 195.309 335.618L193.462 335.213C192.444 334.981 191.691 334.612 191.203 334.105C190.721 333.598 190.479 332.957 190.479 332.18C190.479 331.536 190.659 330.973 191.019 330.49C191.379 330.007 191.876 329.631 192.51 329.361C193.145 329.086 193.872 328.949 194.691 328.949C195.87 328.949 196.798 329.205 197.475 329.716C198.152 330.223 198.599 330.902 198.817 331.754ZM206.457 329.091V330.795H200.499V329.091H206.457ZM202.097 326.477H204.22V336.797C204.22 337.209 204.282 337.519 204.405 337.727C204.528 337.931 204.687 338.071 204.881 338.146C205.08 338.217 205.295 338.253 205.527 338.253C205.697 338.253 205.847 338.241 205.974 338.217C206.102 338.194 206.202 338.175 206.273 338.161L206.656 339.915C206.533 339.962 206.358 340.009 206.131 340.057C205.903 340.109 205.619 340.137 205.278 340.142C204.72 340.152 204.199 340.052 203.716 339.844C203.233 339.635 202.842 339.313 202.544 338.878C202.246 338.442 202.097 337.895 202.097 337.237V326.477ZM213.391 340.22C212.316 340.22 211.391 339.991 210.614 339.531C209.842 339.067 209.246 338.416 208.824 337.578C208.408 336.735 208.199 335.748 208.199 334.616C208.199 333.499 208.408 332.514 208.824 331.662C209.246 330.81 209.833 330.144 210.586 329.666C211.343 329.188 212.229 328.949 213.242 328.949C213.857 328.949 214.454 329.051 215.032 329.254C215.609 329.458 216.128 329.777 216.587 330.213C217.046 330.649 217.408 331.214 217.674 331.911C217.939 332.602 218.071 333.442 218.071 334.432V335.185H209.4V333.594H215.99C215.99 333.035 215.877 332.54 215.65 332.109C215.422 331.674 215.103 331.33 214.691 331.08C214.283 330.829 213.805 330.703 213.256 330.703C212.659 330.703 212.139 330.85 211.694 331.143C211.253 331.432 210.912 331.811 210.671 332.28C210.434 332.744 210.316 333.248 210.316 333.793V335.036C210.316 335.765 210.444 336.385 210.699 336.896C210.96 337.408 211.322 337.798 211.786 338.068C212.25 338.333 212.792 338.466 213.412 338.466C213.815 338.466 214.182 338.409 214.513 338.295C214.845 338.177 215.131 338.002 215.373 337.77C215.614 337.538 215.799 337.251 215.926 336.911L217.936 337.273C217.775 337.865 217.487 338.383 217.07 338.828C216.658 339.268 216.14 339.612 215.515 339.858C214.894 340.099 214.186 340.22 213.391 340.22ZM220.428 340V329.091H222.48V330.824H222.594C222.793 330.237 223.143 329.775 223.645 329.439C224.152 329.098 224.724 328.928 225.364 328.928C225.496 328.928 225.652 328.932 225.832 328.942C226.017 328.951 226.161 328.963 226.266 328.977V331.009C226.18 330.985 226.029 330.959 225.811 330.93C225.593 330.897 225.375 330.881 225.158 330.881C224.656 330.881 224.208 330.987 223.815 331.2C223.427 331.409 223.119 331.7 222.892 332.074C222.665 332.443 222.551 332.865 222.551 333.338V340H220.428ZM230.227 333.523V340H228.103V329.091H230.142V330.866H230.277C230.528 330.289 230.921 329.825 231.456 329.474C231.995 329.124 232.675 328.949 233.494 328.949C234.237 328.949 234.888 329.105 235.447 329.418C236.006 329.725 236.439 330.185 236.747 330.795C237.055 331.406 237.208 332.161 237.208 333.061V340H235.085V333.317C235.085 332.526 234.879 331.908 234.467 331.463C234.055 331.013 233.489 330.788 232.77 330.788C232.277 330.788 231.839 330.895 231.456 331.108C231.077 331.321 230.776 331.634 230.554 332.045C230.336 332.453 230.227 332.945 230.227 333.523Z" fill="black"/>
</svg>
